<?xml version="1.0" encoding="UTF-8" standalone="no"?>
<svg
   xmlns:dc="http://purl.org/dc/elements/1.1/"
   xmlns:cc="http://creativecommons.org/ns#"
   xmlns:rdf="http://www.w3.org/1999/02/22-rdf-syntax-ns#"
   xmlns:svg="http://www.w3.org/2000/svg"
   xmlns="http://www.w3.org/2000/svg"
   xmlns:sodipodi="http://sodipodi.sourceforge.net/DTD/sodipodi-0.dtd"
   xmlns:inkscape="http://www.inkscape.org/namespaces/inkscape"
   width="300"
   height="100"
   viewBox="0 0 300 100"
   version="1.1"
   id="svg16"
   sodipodi:docname="acme-logo-8_black.svg"
   inkscape:version="0.92.3 (2405546, 2018-03-11)">
  <metadata
     id="metadata20">
    <rdf:RDF>
      <cc:Work
         rdf:about="">
        <dc:format>image/svg+xml</dc:format>
        <dc:type
           rdf:resource="http://purl.org/dc/dcmitype/StillImage" />
        <dc:title>logo 8</dc:title>
      </cc:Work>
    </rdf:RDF>
  </metadata>
  <sodipodi:namedview
     pagecolor="#ffffff"
     bordercolor="#666666"
     borderopacity="1"
     objecttolerance="10"
     gridtolerance="10"
     guidetolerance="10"
     inkscape:pageopacity="0"
     inkscape:pageshadow="2"
     inkscape:window-width="1920"
     inkscape:window-height="1007"
     id="namedview18"
     showgrid="false"
     inkscape:zoom="1"
     inkscape:cx="52.128379"
     inkscape:cy="14.187094"
     inkscape:window-x="0"
     inkscape:window-y="0"
     inkscape:window-maximized="1"
     inkscape:current-layer="svg16" />
  <!-- Generator: Sketch 39.1 (31720) - http://www.bohemiancoding.com/sketch -->
  <title
     id="title2">logo 8</title>
  <desc
     id="desc4">Created with Sketch.</desc>
  <defs
     id="defs6" />
  <g
     id="Page-1"
     transform="matrix(2.0325472,0,0,2.0325472,-0.20296257,-0.982744)"
     style="fill:none;fill-rule:evenodd;stroke:none;stroke-width:1"
     inkscape:export-xdpi="96"
     inkscape:export-ydpi="96">
    <g
       id="Desktop-HD"
       transform="translate(-1112,-925)"
       style="fill:#313048">
      <g
         id="logo-8"
         transform="translate(1112,925)">
        <path
           d="M 11.202343,35.884859 16.614117,30.425 h 10.994585 l 4.215905,14.930986 z M 3.6285132,16.946831 13.684136,18.237676 V 28.99331 c 0,0.104225 0.01187,0.206338 0.03281,0.304225 L 8.9292868,34.127113 Z M 13.684136,15.350352 4.6666075,14.192606 13.684136,5.096831 Z M 33.496589,8.2954225 25.153438,16.823591 16.523362,15.715141 V 3.6538732 Z M 16.523362,27.560915 v -8.95845 l 8.038774,1.032394 2.238151,7.926056 z m 23.699547,0 H 29.752607 l -2.489471,-8.816197 8.308245,-8.492957 z M 34.296626,43.653873 30.561023,30.425 h 9.310735 z M 43.448891,28.618662 37.696438,7.2102113 C 37.564494,6.7193662 37.184023,6.3355634 36.697438,6.2024648 L 15.474796,0.39964789 c -0.426547,-0.11690141 -0.883113,-0.0260563 -1.233566,0.24507042 -0.02374,0.0176056 -0.04398,0.0380282 -0.06632,0.0570422 L 14.09951,0.62640841 0.61266115,14.232042 l 0.001396,0.0014 c -0.0293208,0.02958 -0.0586415,0.05845 -0.0858679,0.09084 -0.30996226,0.373239 -0.41118868,0.880281 -0.26737736,1.345774 L 6.6632113,36.422183 c 0.1207736,0.389437 0.3993208,0.708451 0.7672264,0.877465 L 33.442834,49.246831 c 0.18849,0.08662 0.388849,0.128873 0.587811,0.128873 0.333698,0 0.663906,-0.119014 0.926397,-0.347183 0.168943,-0.145774 0.294603,-0.327465 0.378377,-0.526056 l 0.0021,0.0014 7.844698,-18.612676 c 0.0077,-0.0099 0.01675,-0.01831 0.02374,-0.02817 0.268774,-0.354225 0.358132,-0.814084 0.242944,-1.244366 z"
           id="Fill-96"
           inkscape:connector-curvature="0" />
        <path
           d="m 66.640002,20.481972 -2.351943,6.547887 h 4.704584 z m 4.162151,11.978873 -0.927793,-2.578873 h -6.468717 l -0.950132,2.578873 h -3.664396 l 5.835528,-15.219014 h 4.026717 l 5.812491,15.219014 z"
           id="Fill-97"
           inkscape:connector-curvature="0" />
        <path
           d="m 83.422643,24.862746 c 0,-4.677464 3.505925,-7.871831 8.029699,-7.871831 3.324415,0 5.247018,1.825353 6.310245,3.719015 l -2.759642,1.369014 c -0.633188,-1.231691 -1.990321,-2.213381 -3.550603,-2.213381 -2.737302,0 -4.727623,2.122536 -4.727623,4.997183 0,2.874648 1.990321,4.996479 4.727623,4.996479 1.560282,0 2.917415,-0.957746 3.550603,-2.21338 l 2.759642,1.346479 c -1.085566,1.893662 -2.98583,3.742253 -6.310245,3.742253 -4.523774,0 -8.029699,-3.194366 -8.029699,-7.871831"
           id="Fill-98"
           inkscape:connector-curvature="0" />
        <polygon
           id="Fill-99"
           points="111.94434,32.460493 108.73232,32.460493 108.73232,17.242183 113.23375,17.242183 116.89815,26.436549 120.56185,17.242183 125.08562,17.242183 125.08562,32.460493 121.85126,32.460493 121.85126,21.804859 117.59906,32.460493 116.19655,32.460493 111.94434,21.804859 " />
        <polygon
           id="Fill-100"
           points="140.33039,23.311197 147.63614,23.311197 147.63614,26.16331 140.33039,26.16331 140.33039,29.60838 147.79461,29.60838 147.79461,32.460493 137.11837,32.460493 137.11837,17.242183 147.79461,17.242183 147.79461,20.093591 140.33039,20.093591 " />
      </g>
    </g>
  </g>
</svg>
